<svg width="130" height="39" viewBox="0 0 130 39" fill="none" xmlns="http://www.w3.org/2000/svg">
<path d="M130 0.329102C116.789 1.57602 108.927 10.9008 108.927 20.006C108.927 23.3716 109.969 26.6493 111.86 29.5423H126.225C122.693 27.4388 120.665 23.7492 120.665 19.9533C120.665 15.2442 123.981 10.3076 130 9.0767V0.329102Z" fill="#3778A3"/>
<path d="M101.955 29.5312V24.7462C101.955 12.2723 94.109 9.12942 86.7727 9.12942C80.6379 9.12942 72.2959 11.4636 67.8718 14.6943V0.666016H55.8081V29.5312H67.8718V23.0419C71.0904 20.6159 78.4291 18.5516 82.5498 18.5516C88.9848 18.5516 89.787 23.0419 89.787 27.8005V29.5312H101.955Z" fill="#3778A3"/>
<path d="M47.2959 0.329102C34.0835 1.57522 26.2236 10.9 26.2236 20.0052C26.2236 23.3708 27.2646 26.6485 29.1549 29.5415H43.5216C39.99 27.438 37.96 23.7484 37.96 19.9525C37.96 15.2434 41.2785 10.3069 47.2959 9.0759V0.329102Z" fill="#3778A3"/>
<path d="M21.0739 0.329102C7.85751 1.57522 0 10.9 0 20.0052C0 23.3708 1.04096 26.6485 2.93289 29.5415H17.298C13.7648 27.438 11.7348 23.7484 11.7348 19.9525C11.7348 15.2434 15.0564 10.3069 21.0739 9.0759V0.329102Z" fill="#EA6140"/>
<path d="M4.97822 38.1751L4.81538 37.7512C4.56791 37.8925 4.28292 37.9843 3.97239 37.9843C3.21561 37.9843 2.755 37.4135 2.755 36.644C2.755 35.9095 3.20523 35.2996 4.0099 35.2996C4.35077 35.2996 4.62138 35.3867 4.89679 35.5623L4.90797 35.021C4.71399 34.9125 4.39148 34.8223 4.00112 34.8223C2.88353 34.8223 2.1499 35.6453 2.1499 36.6855C2.1499 37.7081 2.79252 38.4912 3.88696 38.4912C4.24859 38.4912 4.61261 38.3986 4.97822 38.1751ZM9.45419 38.4353L8.06119 34.8406H7.67243L6.31135 38.4353H6.86536L7.19825 37.5237H8.50025L8.8515 38.4353H9.45419ZM8.31744 37.0455H7.37388L7.71713 36.0796L7.85843 35.6453H7.86402L7.99254 36.0867L8.31744 37.0455ZM14.3692 38.4353V34.851H13.832L12.8828 36.3654L12.6801 36.735H12.6745L12.4613 36.3741L11.4419 34.851H10.9119V38.4353H11.4675V36.141L11.4491 35.7706H11.4587L11.6614 36.1195L12.526 37.4135H12.8174L13.6188 36.1338L13.8176 35.7706H13.8248L13.8176 36.1482V38.4353H14.3692ZM18.9777 38.4353L17.5879 34.8406H17.1992L15.8389 38.4353H16.3937L16.7234 37.5237H18.0246L18.379 38.4353H18.9777ZM17.845 37.0455H16.8974L17.2478 36.0796L17.3852 35.6453H17.3923L17.5161 36.0867L17.845 37.0455ZM22.9292 38.4353C22.3808 37.5181 22.0136 36.8778 21.8627 36.802V36.798C22.2124 36.6583 22.5269 36.3422 22.5269 35.8513C22.5269 35.2996 22.1892 34.851 21.3095 34.851H20.4306V38.4353H20.9982V36.9824H21.3191C21.462 37.0223 21.7334 37.5093 22.2826 38.4353H22.9292ZM21.9553 35.9095C21.9553 36.252 21.6879 36.5378 21.3255 36.5378H20.9982V35.3483H21.3135C21.7693 35.3483 21.9553 35.6022 21.9553 35.9095ZM27.1969 38.4353L25.807 34.8406H25.4167L24.054 38.4353H24.6128L24.9425 37.5237H26.2469L26.5973 38.4353H27.1969ZM26.0641 37.0455H25.1165L25.467 36.0796L25.6043 35.6453H25.6099L25.7352 36.0867L26.0641 37.0455ZM33.6119 38.1751L33.453 37.7512C33.1975 37.8925 32.9102 37.9843 32.6004 37.9843C31.8445 37.9843 31.3846 37.4135 31.3846 36.644C31.3846 35.9095 31.8333 35.2996 32.6404 35.2996C32.9788 35.2996 33.2518 35.3867 33.532 35.5623L33.5392 35.021C33.3428 34.9125 33.0203 34.8223 32.6332 34.8223C31.5132 34.8223 30.7804 35.6453 30.7804 36.6855C30.7804 37.7081 31.4198 38.4912 32.5142 38.4912C32.8774 38.4912 33.2415 38.3986 33.6119 38.1751ZM38.0623 38.4353V34.851H37.5035V36.3654H35.7273V34.851H35.1693V38.4353H35.7273V36.8635H37.5035V38.4353H38.0623ZM40.4164 34.851H39.8552V38.4353H40.4164V34.851ZM44.051 38.4353V37.9483H42.761V34.851H42.207V38.4353H44.051ZM47.391 38.4353V37.9483H46.0667V36.8483H47.2098V36.3582H46.0667V35.3412H47.2154L47.387 34.851H45.5095V38.4353H47.391ZM52.1233 38.4353V34.851H51.5645V37.0136L51.5716 37.5141H51.5645C51.483 37.3656 51.3856 37.2307 51.1941 36.9752L49.6055 34.851H49.0387V38.4353H49.5959V36.1841L49.5815 35.7139H49.5959C49.6789 35.864 49.7755 36.0037 49.9487 36.2312L51.6012 38.4353H52.1233ZM56.7262 38.4353L55.3308 34.8406H54.9436L53.5833 38.4353H54.1389L54.4686 37.5237H55.7706L56.1235 38.4353H56.7262ZM55.5918 37.0455H54.6434L54.9891 36.0796L55.1304 35.6453H55.1344L55.2629 36.0867L55.5918 37.0455ZM63.387 36.608C63.387 35.5806 62.7484 34.851 61.4512 34.851H60.4877V38.4353H61.4297C62.6997 38.4353 63.387 37.6578 63.387 36.608ZM62.7963 36.6192C62.7963 37.3185 62.4323 37.9483 61.4552 37.9483H61.0433V35.3483H61.4552C62.3636 35.3483 62.7963 35.8896 62.7963 36.6192ZM66.8795 38.4353V37.9483H65.5552V36.8483H66.6967V36.3582H65.5552V35.3412H66.7039L66.8739 34.851H64.9996V38.4353H66.8795ZM72.6719 38.4353V37.9483H71.389V34.851H70.8342V38.4353H72.6719ZM76.9435 38.4353L75.5521 34.8406H75.1649L73.803 38.4353H74.3563L74.6899 37.5237H75.9919L76.3432 38.4353H76.9435ZM75.8091 37.0455H74.8648L75.212 36.0796L75.3493 35.6453H75.3573L75.485 36.0867L75.8091 37.0455ZM83.3553 38.1751L83.1964 37.7512C82.9466 37.8925 82.6552 37.9843 82.3479 37.9843C81.5919 37.9843 81.1305 37.4135 81.1305 36.644C81.1305 35.9095 81.5791 35.2996 82.3854 35.2996C82.7263 35.2996 82.9993 35.3867 83.2763 35.5623L83.2883 35.021C83.0879 34.9125 82.7678 34.8223 82.3806 34.8223C81.2606 34.8223 80.5254 35.6453 80.5254 36.6855C80.5254 37.7081 81.168 38.4912 82.264 38.4912C82.6241 38.4912 82.9865 38.3986 83.3553 38.1751ZM84.7308 36.6751C84.7308 37.2323 84.9351 37.7192 85.2896 38.0497C85.5969 38.3307 86.0112 38.4912 86.5069 38.4912C87.0242 38.4912 87.4601 38.3124 87.777 37.9899C88.1043 37.665 88.2871 37.1908 88.2871 36.6535C88.2871 36.1466 88.1314 35.7052 87.8441 35.3795C87.5256 35.025 87.0609 34.8223 86.5069 34.8223C85.9928 34.8223 85.5466 35.0155 85.2329 35.3412C84.9152 35.6724 84.7308 36.141 84.7308 36.6751ZM87.6868 36.6607C87.6868 37.4949 87.2126 38.0082 86.5069 38.0082C85.7996 38.0082 85.3223 37.4949 85.3223 36.6607C85.3223 35.8241 85.7996 35.3124 86.5069 35.3124C87.2429 35.3124 87.6868 35.8592 87.6868 36.6607ZM92.977 38.4353V34.851H92.419V37.0136L92.4286 37.5141H92.419C92.336 37.3656 92.2426 37.2307 92.0502 36.9752L90.4584 34.851H89.8972V38.4353H90.4489V36.1841L90.4401 35.7139H90.4489C90.5327 35.864 90.6333 36.0037 90.8001 36.2312L92.4589 38.4353H92.977ZM96.816 37.4949C96.816 36.3965 95.2801 36.4164 95.2801 35.7084C95.2801 35.4266 95.5315 35.2964 95.8365 35.2964C96.1263 35.2964 96.3961 35.3994 96.638 35.5479L96.6459 35.0155C96.4631 34.9165 96.1821 34.8223 95.8093 34.8223C95.0973 34.8223 94.7085 35.2533 94.7085 35.7762C94.7085 36.0548 94.8035 36.252 94.9464 36.4164C95.3719 36.8994 96.2221 37.0136 96.2221 37.5564C96.2221 37.8853 95.8844 38.017 95.5946 38.017C95.2649 38.017 94.9903 37.8765 94.8107 37.7512L94.5776 38.1806C94.8035 38.3267 95.1332 38.4912 95.6161 38.4912C96.2979 38.4912 96.816 38.0992 96.816 37.4949ZM100.811 34.851H98.1108V35.3412H99.1262V38.4353H99.6978V35.3412H100.661L100.811 34.851ZM104.729 38.4353C104.177 37.5181 103.807 36.8778 103.661 36.802V36.798C104.007 36.6583 104.32 36.3422 104.32 35.8513C104.32 35.2996 103.987 34.851 103.106 34.851H102.234V38.4353H102.791V36.9824H103.118C103.253 37.0223 103.53 37.5093 104.076 38.4353H104.729ZM103.752 35.9095C103.752 36.252 103.488 36.5378 103.124 36.5378H102.791V35.3483H103.111C103.562 35.3483 103.752 35.6022 103.752 35.9095ZM108.899 37.1397V34.851H108.338V37.1341C108.338 37.3927 108.288 37.6155 108.14 37.7663C108.009 37.9156 107.794 37.9978 107.484 37.9978C107.207 37.9978 107.004 37.9156 106.868 37.7663C106.719 37.5979 106.648 37.352 106.648 37.1006V34.851H106.095V37.1293C106.095 37.5053 106.171 37.8925 106.437 38.1471C106.652 38.3643 106.991 38.4912 107.474 38.4912C107.977 38.4912 108.331 38.3499 108.56 38.1024C108.791 37.8653 108.899 37.5237 108.899 37.1397ZM113.359 38.1751L113.203 37.7512C112.953 37.8925 112.666 37.9843 112.355 37.9843C111.597 37.9843 111.139 37.4135 111.139 36.644C111.139 35.9095 111.587 35.2996 112.393 35.2996C112.733 35.2996 113.008 35.3867 113.281 35.5623L113.294 35.021C113.095 34.9125 112.774 34.8223 112.387 34.8223C111.267 34.8223 110.53 35.6453 110.53 36.6855C110.53 37.7081 111.177 38.488 112.27 38.488C112.633 38.488 112.993 38.3986 113.359 38.1751ZM117.574 38.1751L117.412 37.7512C117.16 37.8925 116.87 37.9843 116.562 37.9843C115.806 37.9843 115.347 37.4135 115.347 36.644C115.347 35.9095 115.792 35.2996 116.601 35.2996C116.941 35.2996 117.214 35.3867 117.491 35.5623L117.5 35.021C117.303 34.9125 116.983 34.8223 116.593 34.8223C115.474 34.8223 114.736 35.6453 114.736 36.6855C114.736 37.7081 115.383 38.488 116.479 38.488C116.839 38.488 117.203 38.3986 117.574 38.1751ZM119.688 34.851H119.128V38.4353H119.688V34.851ZM121.299 36.6751C121.299 37.2323 121.504 37.7192 121.853 38.0497C122.161 38.3299 122.578 38.488 123.074 38.488C123.592 38.488 124.022 38.31 124.346 37.9899C124.668 37.665 124.849 37.1908 124.849 36.6535C124.849 36.1466 124.697 35.7052 124.409 35.3763C124.095 35.025 123.63 34.8223 123.074 34.8223C122.558 34.8223 122.114 35.0155 121.804 35.3412C121.478 35.6724 121.299 36.1378 121.299 36.6751ZM124.254 36.6607C124.254 37.4949 123.778 38.0082 123.074 38.0082C122.363 38.0082 121.892 37.4949 121.892 36.6607C121.892 35.8241 122.363 35.3124 123.074 35.3124C123.811 35.3124 124.254 35.8592 124.254 36.6607ZM129.544 38.4353V34.851H128.987V37.0112L128.994 37.5141H128.987C128.905 37.3656 128.807 37.2307 128.619 36.972L127.024 34.851H126.463V38.4353H127.017V36.1841L127.005 35.7139H127.017C127.103 35.864 127.199 36.0021 127.369 36.2312L129.02 38.4353H129.544Z" fill="#131718"/>
</svg>
